<?xml version="1.0" standalone="no"?> <!DOCTYPE svg PUBLIC "-//W3C//DTD SVG 20010904//EN" "http://www.w3.org/TR/2001/REC-SVG-20010904/DTD/svg10.dtd"> <svg version="1.0" xmlns="http://www.w3.org/2000/svg" width="500.000000pt" height="500.000000pt" viewBox="0 0 500.000000 500.000000" preserveAspectRatio="xMidYMid meet"> <g transform="translate(0.000000,500.000000) scale(0.100000,-0.100000)" fill="#000000" stroke="none"> <path d="M2075 3554 c-22 -2 -112 -8 -200 -14 -328 -22 -778 -86 -851 -120 -67 -33 -86 -64 -221 -362 -112 -247 -128 -288 -111 -288 10 0 50 5 89 11 l69 12 0 42 c0 310 356 558 920 639 476 68 1231 47 1732 -48 88 -17 100 -13 26 8 -124 37 -384 82 -603 106 -96 11 -768 22 -850 14z"/> <path d="M2108 3438 c-296 -18 -268 -24 147 -31 961 -18 1326 -93 1470 -301 94 -136 56 -201 -141 -243 -69 -15 -132 -16 -494 -12 -1372 14 -1666 0 -2110 -107 -352 -84 -700 -239 -832 -370 -29 -29 -20 -40 9 -12 42 39 176 113 288 158 340 139 813 225 1485 272 418 29 1781 10 2028 -28 38 -6 38 -12 6 72 -61 163 -163 336 -257 439 l-52 56 -120 20 c-513 85 -976 113 -1427 87z"/> <path d="M3640 3395 c0 -3 2 -5 5 -5 3 0 5 2 5 5 0 3 -2 5 -5 5 -3 0 -5 -2 -5 -5z"/> <path d="M324 2974 c-21 -8 -40 -14 -41 -14 -16 -1 -63 -90 -63 -119 0 -63 28 -81 127 -81 83 0 169 -19 219 -49 l37 -22 34 33 33 33 -49 -3 c-52 -4 -106 16 -170 63 -27 20 -41 24 -71 19 -48 -8 -82 10 -78 39 6 46 136 85 190 56 22 -12 57 -82 58 -116 0 -27 15 -30 24 -7 4 10 9 50 13 90 l6 73 -28 11 c-38 15 -193 11 -241 -6z"/> <path d="M4093 2969 c-21 -21 -10 -187 12 -182 5 1 14 23 21 50 22 87 106 120 193 75 78 -39 56 -93 -38 -89 -41 2 -53 -3 -84 -30 -43 -38 -106 -57 -161 -50 l-39 6 34 -34 34 -34 60 30 c49 24 77 31 150 35 115 7 131 10 155 34 40 40 14 124 -53 172 -39 28 -261 41 -284 17z"/> <path d="M2150 2744 c-249 -21 -326 -28 -460 -45 -275 -35 -867 -165 -846 -186 2 -2 78 12 168 31 538 116 1135 163 1903 151 728 -11 766 -16 410 -55 -371 -40 -536 -73 -573 -113 -23 -25 1 -45 123 -103 326 -154 610 -161 1012 -23 341 117 358 122 434 127 129 8 191 -42 240 -192 27 -81 49 -110 49 -62 0 73 -56 189 -130 271 -25 28 -57 66 -71 84 -36 48 -68 46 -162 -13 -191 -119 -402 -171 -769 -191 -179 -9 -433 50 -433 100 0 43 258 91 682 126 84 7 150 16 145 19 -4 4 -76 12 -160 19 -84 6 -266 21 -405 32 -236 19 -1016 35 -1157 23z"/> <path d="M100 2395 c0 -3 2 -5 5 -5 3 0 5 2 5 5 0 3 -2 5 -5 5 -3 0 -5 -2 -5 -5z"/> <path d="M120 2380 c-6 -11 -8 -20 -6 -20 3 0 10 9 16 20 6 11 8 20 6 20 -3 0 -10 -9 -16 -20z"/> <path d="M90 2375 c0 -3 2 -5 5 -5 3 0 5 2 5 5 0 3 -2 5 -5 5 -3 0 -5 -2 -5 -5z"/> <path d="M2583 2068 l-128 -172 -12 64 c-7 36 -12 98 -13 138 0 70 1 73 23 72 41 -4 42 0 9 30 l-33 30 -118 -3 c-169 -4 -253 -48 -253 -132 0 -51 63 -118 94 -99 7 4 -3 14 -26 26 -46 24 -50 66 -10 103 34 32 80 45 182 52 l83 6 -6 -74 c-5 -51 -2 -105 10 -174 l17 -100 -63 -58 c-239 -217 -458 -295 -479 -172 -7 40 -25 33 -23 -8 1 -21 11 -41 31 -58 90 -80 259 -16 459 175 l92 87 25 -48 c53 -105 106 -138 173 -107 45 22 153 126 153 148 0 24 -5 21 -57 -35 -103 -110 -155 -103 -217 31 -34 72 -37 63 50 171 89 111 184 249 184 267 0 31 -28 0 -147 -160z"/> <path d="M1292 2210 c-47 -44 -14 -120 51 -120 43 0 70 29 69 72 -2 61 -75 90 -120 48z"/> <path d="M2997 2203 c-8 -10 -31 -52 -50 -93 -19 -41 -72 -154 -116 -250 -45 -96 -79 -180 -77 -187 4 -9 26 -13 65 -13 57 0 61 2 87 35 l26 35 90 0 c92 0 128 -10 128 -35 0 -22 34 -35 94 -35 67 0 67 -1 17 109 -22 47 -49 109 -62 136 -149 334 -157 347 -202 298z m31 -27 c-13 -14 -28 -12 -28 5 0 5 9 9 20 9 17 0 19 -2 8 -14z m28 -15 c-3 -5 1 -11 9 -15 8 -3 15 -14 15 -24 0 -10 3 -22 8 -28 9 -13 -25 26 -43 48 -13 16 -10 28 7 28 5 0 7 -4 4 -9z m22 -118 c159 -342 165 -356 113 -294 l-29 35 -128 3 c-137 3 -166 -5 -179 -47 -3 -11 -10 -20 -15 -20 -12 0 -3 22 131 308 26 56 52 102 57 102 5 0 27 -39 50 -87z m32 2 c0 -3 -2 -5 -5 -5 -3 0 -5 2 -5 5 0 3 2 5 5 5 3 0 5 -2 5 -5z m-147 -296 c-8 -8 -13 -7 -18 2 -5 8 -4 10 3 5 7 -4 12 -2 12 5 0 7 3 9 7 6 4 -4 2 -12 -4 -18z m-143 -3 c0 -14 -26 -46 -36 -46 -3 0 1 10 8 23 7 12 11 25 10 30 -1 4 3 7 8 7 6 0 10 -6 10 -14z m80 9 c0 -3 -2 -5 -5 -5 -3 0 -5 2 -5 5 0 3 2 5 5 5 3 0 5 -2 5 -5z m110 0 c0 -3 -2 -5 -5 -5 -3 0 -5 2 -5 5 0 3 2 5 5 5 3 0 5 -2 5 -5z m70 -10 c0 -3 -2 -5 -5 -5 -3 0 -5 2 -5 5 0 3 2 5 5 5 3 0 5 -2 5 -5z m-190 -35 c-18 -16 -36 -27 -42 -24 -12 7 10 34 37 44 36 15 38 10 5 -20z m-63 -20 c-1 -22 -17 -28 -17 -7 0 12 9 27 16 27 2 0 2 -9 1 -20z"/> <path d="M2960 1963 c-34 -70 -59 -134 -58 -142 4 -18 233 -30 250 -13 9 9 -111 282 -124 282 -4 0 -35 -57 -68 -127z m90 52 c0 -3 -2 -5 -5 -5 -3 0 -5 2 -5 5 0 3 2 5 5 5 3 0 5 -2 5 -5z m-40 -10 c0 -3 -2 -5 -5 -5 -3 0 -5 2 -5 5 0 3 2 5 5 5 3 0 5 -2 5 -5z m37 -22 c-4 -3 -7 0 -7 7 0 7 3 10 7 7 3 -4 3 -10 0 -14z m-47 2 c0 -3 -2 -5 -5 -5 -3 0 -5 2 -5 5 0 3 2 5 5 5 3 0 5 -2 5 -5z m60 -75 c17 -51 6 -64 -44 -55 -42 8 -42 8 -15 69 24 54 38 51 59 -14z m-100 -80 c0 -5 -5 -10 -11 -10 -5 0 -7 5 -4 10 3 6 8 10 11 10 2 0 4 -4 4 -10z"/> <path d="M2864 1708 c-4 -7 -3 -8 4 -4 7 4 12 9 12 12 0 8 -9 4 -16 -8z"/> <path d="M575 2198 c-3 -7 -4 -130 -3 -273 l3 -260 150 -3 c167 -3 189 2 235 55 41 46 44 141 6 192 l-24 32 20 59 c27 78 9 136 -55 178 -38 26 -48 27 -184 30 -113 3 -144 1 -148 -10z m145 -13 c0 -3 -2 -5 -5 -5 -3 0 -5 2 -5 5 0 3 2 5 5 5 3 0 5 -2 5 -5z m30 -5 c0 -5 -2 -10 -4 -10 -3 0 -8 5 -11 10 -3 6 -1 10 4 10 6 0 11 -4 11 -10z m30 5 c0 -3 -2 -5 -5 -5 -3 0 -5 2 -5 5 0 3 2 5 5 5 3 0 5 -2 5 -5z m-100 -10 c0 -3 -2 -5 -5 -5 -3 0 -5 2 -5 5 0 3 2 5 5 5 3 0 5 -2 5 -5z m193 -45 c47 -37 54 -135 12 -170 -13 -11 -10 -18 20 -51 57 -63 38 -152 -40 -185 -43 -18 -206 -19 -223 -2 -13 13 -18 409 -5 421 18 18 210 7 236 -13z m-263 -45 c0 -3 -2 -5 -5 -5 -3 0 -5 2 -5 5 0 3 2 5 5 5 3 0 5 -2 5 -5z m-5 -73 c4 -23 -10 -39 -20 -22 -7 11 4 55 11 47 3 -2 6 -14 9 -25z m5 -47 c0 -3 -2 -5 -5 -5 -3 0 -5 2 -5 5 0 3 2 5 5 5 3 0 5 -2 5 -5z m-10 -30 c0 -3 -2 -5 -5 -5 -3 0 -5 2 -5 5 0 3 2 5 5 5 3 0 5 -2 5 -5z m300 -240 c0 -3 -2 -5 -5 -5 -3 0 -5 2 -5 5 0 3 2 5 5 5 3 0 5 -2 5 -5z"/> <path d="M663 2134 c-20 -9 -18 -168 2 -184 27 -23 178 -4 206 26 33 35 31 97 -4 132 -26 25 -166 43 -204 26z m77 -19 c0 -8 -7 -15 -15 -15 -16 0 -20 12 -8 23 11 12 23 8 23 -8z m40 0 c0 -3 -2 -5 -5 -5 -3 0 -5 2 -5 5 0 3 2 5 5 5 3 0 5 -2 5 -5z m55 -15 c3 -5 4 -10 1 -10 -3 0 -8 5 -11 10 -3 6 -4 10 -1 10 3 0 8 -4 11 -10z m-155 -25 c0 -3 -2 -5 -5 -5 -3 0 -5 2 -5 5 0 3 2 5 5 5 3 0 5 -2 5 -5z m145 -35 l0 -35 -54 -3 c-60 -4 -70 4 -63 49 4 30 5 30 61 27 l56 -3 0 -35z m-138 -67 c-4 -3 -10 -3 -14 0 -3 4 0 7 7 7 7 0 10 -3 7 -7z m33 2 c0 -3 -2 -5 -5 -5 -3 0 -5 2 -5 5 0 3 2 5 5 5 3 0 5 -2 5 -5z"/> <path d="M661 1916 c-8 -9 -11 -45 -9 -98 l3 -83 96 -3 c91 -3 98 -1 127 23 61 51 50 130 -23 161 -46 19 -179 19 -194 0z m39 -11 c0 -3 -2 -5 -5 -5 -3 0 -5 2 -5 5 0 3 2 5 5 5 3 0 5 -2 5 -5z m100 0 c0 -3 -2 -5 -5 -5 -3 0 -5 2 -5 5 0 3 2 5 5 5 3 0 5 -2 5 -5z m50 -49 c25 -31 8 -60 -41 -70 -75 -14 -99 -4 -99 44 l0 40 64 0 c43 0 67 -5 76 -14z"/> <path d="M4056 2140 c-290 -116 -195 -559 116 -538 292 19 366 396 104 530 -59 30 -157 34 -220 8z m106 -100 c15 0 28 4 28 10 0 5 7 7 15 4 17 -7 20 -30 5 -39 -6 -4 -17 -1 -25 5 -13 11 -15 7 -15 -25 0 -42 -23 -45 -28 -3 -2 19 -8 25 -21 21 -11 -3 -21 2 -25 13 -8 20 14 38 28 24 6 -6 23 -10 38 -10z m88 -5 c0 -3 -2 -5 -5 -5 -3 0 -5 2 -5 5 0 3 2 5 5 5 3 0 5 -2 5 -5z m-150 -30 c7 -8 16 -12 21 -9 5 3 9 -5 9 -18 0 -39 44 -76 47 -39 5 59 49 99 78 70 21 -21 -6 -76 -47 -93 -16 -7 -28 -17 -26 -22 2 -5 -12 -10 -31 -12 -26 -3 -32 0 -28 11 7 18 -34 32 -44 15 -6 -10 -74 -6 -85 5 -19 18 10 35 36 22 36 -19 46 -19 31 -2 -6 8 -8 17 -4 20 3 4 0 13 -7 22 -10 12 -10 18 0 30 16 19 34 19 50 0z m-75 -4 c-3 -5 -1 -12 5 -16 20 -12 11 -38 -11 -32 -16 4 -24 -1 -34 -26 l-14 -32 -1 27 c0 15 6 31 14 35 7 4 18 18 25 31 6 12 14 22 17 22 3 0 3 -4 -1 -9z m315 -80 c0 -10 -5 -7 -13 9 -9 17 -20 24 -35 23 -24 -3 -31 22 -9 30 15 6 57 -40 57 -62z m-23 3 c4 -12 -27 -24 -64 -24 -31 0 -29 14 5 27 32 13 54 12 59 -3z m-229 -82 c-12 -13 -10 -14 10 -3 25 13 42 7 42 -15 0 -8 6 -14 14 -14 8 0 17 -6 20 -12 3 -7 4 0 1 15 -5 25 -1 30 32 44 49 21 73 25 73 13 0 -6 9 -10 20 -10 22 0 25 -12 10 -41 -10 -18 -12 -18 -43 -3 -30 16 -31 16 -18 1 12 -15 11 -17 -5 -17 -16 0 -15 -2 5 -24 20 -22 21 -24 4 -30 -10 -4 -22 -2 -28 6 -15 20 -47 11 -40 -12 4 -13 0 -20 -13 -24 -29 -10 -54 3 -47 24 7 24 -25 37 -38 15 -5 -10 -16 -14 -28 -10 -11 4 -19 2 -19 -4 0 -6 5 -11 12 -11 6 0 9 -3 5 -6 -3 -3 -16 1 -29 10 -19 14 -18 20 3 18 3 -1 19 12 34 28 26 28 27 29 5 23 -16 -4 -21 -3 -16 5 9 15 1 15 -24 2 -16 -8 -22 -5 -35 17 -9 16 -14 20 -11 10 22 -71 18 -89 -9 -37 -24 47 -20 60 19 60 19 0 37 4 41 9 3 6 17 6 36 -1 25 -9 28 -12 17 -26z m92 24 c0 -9 -30 -14 -35 -6 -4 6 3 10 14 10 12 0 21 -2 21 -4z m170 -15 c0 -19 -20 -61 -28 -61 -5 0 -4 16 2 35 10 32 26 48 26 26z m-190 -16 c0 -3 -2 -5 -5 -5 -3 0 -5 2 -5 5 0 3 2 5 5 5 3 0 5 -2 5 -5z m-120 -55 c0 -5 -7 -10 -16 -10 -8 0 -12 5 -9 10 3 6 10 10 16 10 5 0 9 -4 9 -10z m258 -1 c-2 -6 -8 -10 -13 -10 -5 0 -11 4 -13 10 -2 6 4 11 13 11 9 0 15 -5 13 -11z m-188 -54 c0 -8 -4 -15 -10 -15 -5 0 -10 7 -10 15 0 8 5 15 10 15 6 0 10 -7 10 -15z m110 1 c0 -8 -6 -16 -14 -19 -10 -4 -12 0 -9 14 6 22 23 26 23 5z m37 -3 c-4 -3 -10 -3 -14 0 -3 4 0 7 7 7 7 0 10 -3 7 -7z m-147 -28 c0 -3 -2 -5 -5 -5 -3 0 -5 2 -5 5 0 3 2 5 5 5 3 0 5 -2 5 -5z"/> <path d="M4120 1935 c0 -3 2 -5 5 -5 3 0 5 2 5 5 0 3 -2 5 -5 5 -3 0 -5 -2 -5 -5z"/> <path d="M4220 1835 c0 -3 2 -5 5 -5 3 0 5 2 5 5 0 3 -2 5 -5 5 -3 0 -5 -2 -5 -5z"/> <path d="M4103 1823 c4 -3 10 -3 14 0 3 4 0 7 -7 7 -7 0 -10 -3 -7 -7z"/> <path d="M4193 1823 c4 -3 10 -3 14 0 3 4 0 7 -7 7 -7 0 -10 -3 -7 -7z"/> <path d="M3657 1958 c5 -257 22 -288 157 -288 l56 0 0 54 0 53 -40 7 c-48 7 -60 30 -60 107 l0 49 44 0 44 0 7 50 c9 64 2 74 -46 66 l-39 -6 0 50 0 50 -64 0 -63 0 4 -192z"/> <path d="M1529 2040 c-63 -33 -79 -82 -79 -238 l0 -132 65 0 64 0 3 133 c3 129 3 132 26 135 46 7 52 -11 52 -144 l0 -124 63 0 62 0 -3 120 c-4 130 2 150 44 150 35 0 39 -15 36 -147 l-3 -123 65 0 66 0 0 144 c0 132 -2 146 -22 176 -48 70 -144 91 -212 45 l-36 -24 -36 24 c-45 31 -104 32 -155 5z"/> <path d="M1040 1891 c0 -87 -3 -173 -6 -190 l-6 -31 66 0 66 0 0 108 c0 123 9 146 65 156 35 7 35 7 35 61 0 55 0 55 -30 55 -19 0 -40 -9 -55 -25 l-25 -24 0 24 c0 24 -3 25 -55 25 l-55 0 0 -159z"/> <path d="M1280 1860 l0 -190 63 0 62 0 0 190 0 190 -62 0 -63 0 0 -190z"/> <path d="M3302 1906 c3 -157 8 -173 72 -220 39 -30 143 -30 183 0 57 43 67 76 71 226 l4 138 -61 0 -61 0 0 -116 c0 -125 -8 -154 -43 -154 -42 0 -47 17 -47 147 l0 123 -61 0 -60 0 3 -144z"/> <path d="M813 1433 c-85 -123 -110 -182 -83 -198 16 -10 130 16 130 30 0 19 -26 26 -55 15 -51 -19 -44 6 33 122 39 59 47 88 23 88 -5 0 -26 -26 -48 -57z"/> <path d="M1271 1458 c-13 -21 -17 -36 -10 -43 11 -11 44 20 54 53 10 35 -19 28 -44 -10z"/> <path d="M1609 1470 c-43 -23 -56 -48 -34 -69 13 -14 15 -14 15 2 0 25 82 60 120 52 56 -12 32 -102 -43 -159 -72 -55 -83 -34 -27 53 64 98 49 130 -18 39 -77 -107 -94 -152 -54 -147 9 1 25 -1 35 -6 65 -28 193 111 173 190 -16 63 -94 84 -167 45z"/> <path d="M3342 1473 c-42 -20 -58 -49 -41 -70 11 -13 14 -12 20 5 10 25 90 57 124 48 67 -17 -22 -186 -98 -186 -24 0 -22 10 23 79 64 98 49 130 -18 39 -78 -109 -95 -156 -52 -145 11 3 23 1 26 -4 30 -50 184 84 184 161 0 77 -85 114 -168 73z"/> <path d="M2560 1447 c-101 -128 -107 -260 -9 -188 l28 21 -26 -50 c-24 -46 -26 -80 -4 -80 5 0 24 33 43 73 19 39 58 109 86 155 29 46 52 88 52 93 0 19 -30 8 -47 -17 -67 -97 -155 -185 -169 -171 -8 7 34 85 72 136 19 24 34 48 34 52 0 21 -37 6 -60 -24z"/> <path d="M1147 1435 c-11 -16 -28 -25 -45 -25 -24 0 -25 -1 -10 -16 15 -16 15 -20 -8 -56 -48 -76 -10 -116 51 -55 53 53 47 82 -6 32 -33 -32 -39 -35 -29 -15 27 54 61 90 86 90 26 0 32 14 12 27 -7 4 -13 14 -13 22 0 24 -19 22 -38 -4z"/> <path d="M2032 1448 c-18 -18 -15 -40 6 -36 9 2 18 13 20 26 4 24 -7 29 -26 10z"/> <path d="M973 1374 c-50 -21 -65 -124 -18 -124 28 0 95 54 95 77 0 10 -11 5 -35 -16 -34 -30 -65 -40 -65 -22 0 5 14 11 30 15 31 6 52 38 43 64 -5 12 -27 15 -50 6z m17 -38 c0 -3 -5 -8 -12 -12 -7 -4 -8 -3 -4 4 7 12 16 16 16 8z"/> <path d="M1317 1338 c-40 -48 -38 -81 6 -86 29 -4 119 69 104 84 -4 4 -18 -3 -32 -16 l-24 -23 9 33 c18 64 -13 68 -63 8z m17 -42 c-6 -16 -24 -23 -24 -8 0 10 22 33 27 28 2 -2 1 -11 -3 -20z"/> <path d="M1818 1342 c-22 -45 -15 -52 19 -21 l27 24 -23 -33 c-45 -65 8 -87 65 -26 19 19 34 40 34 45 0 14 -20 11 -26 -5 -3 -8 -17 -22 -31 -31 -26 -18 -25 -7 4 27 23 26 12 52 -22 54 -25 1 -33 -5 -47 -34z"/> <path d="M1967 1338 c-30 -47 -32 -81 -4 -86 22 -4 53 22 73 60 19 37 8 35 -34 -4 l-34 -33 21 35 c42 70 22 95 -22 28z"/> <path d="M2088 1363 c-57 -66 -43 -150 16 -94 12 11 32 21 43 21 25 0 53 25 53 47 0 13 -6 11 -26 -8 -25 -23 -26 -23 -15 -2 6 12 11 29 11 37 0 28 -19 17 -39 -22 -19 -37 -51 -73 -51 -57 0 4 10 23 21 42 24 39 14 66 -13 36z"/> <path d="M2243 1358 c-77 -85 -21 -152 61 -74 58 54 48 77 -11 26 -33 -29 -53 -38 -53 -22 0 4 15 14 33 22 23 11 32 22 32 40 0 34 -34 38 -62 8z m37 -12 c0 -3 -5 -8 -12 -12 -7 -4 -8 -3 -4 4 7 12 16 16 16 8z"/> <path d="M2726 1345 c-50 -65 -15 -126 44 -75 12 11 29 20 36 20 14 0 47 41 39 49 -3 2 -13 -4 -24 -13 -18 -17 -19 -16 -18 16 3 50 -40 52 -77 3z m51 -12 c-4 -3 -7 0 -7 7 0 7 3 10 7 7 3 -4 3 -10 0 -14z m-35 -45 c-7 -7 -12 -8 -12 -2 0 14 12 26 19 19 2 -3 -1 -11 -7 -17z"/> <path d="M2922 1332 c-29 -31 -36 -36 -23 -15 25 37 27 53 6 53 -8 0 -26 -20 -40 -44 -35 -60 -18 -100 27 -59 10 9 18 11 18 6 0 -6 8 -14 17 -17 19 -8 83 49 83 73 0 10 -10 6 -30 -14 -31 -30 -40 -24 -15 9 16 21 20 56 8 56 -5 0 -27 -21 -51 -48z"/> <path d="M3038 1342 c-22 -45 -15 -52 19 -21 l27 24 -23 -33 c-25 -36 -22 -62 7 -62 23 0 68 34 83 62 18 34 0 33 -37 -3 -24 -22 -33 -27 -26 -13 6 11 18 26 26 33 22 19 5 45 -31 47 -23 1 -31 -5 -45 -34z"/> <path d="M3555 1346 c-22 -44 -18 -52 12 -25 l26 24 -16 -25 c-47 -68 6 -98 62 -35 42 48 39 64 -4 26 -47 -41 -54 -39 -20 5 30 40 24 59 -21 59 -17 1 -29 -7 -39 -29z"/> <path d="M3713 1358 c-77 -85 -21 -152 61 -74 49 46 45 63 -6 26 -41 -30 -58 -37 -58 -22 0 4 15 14 33 22 23 11 32 22 32 40 0 34 -34 38 -62 8z m37 -12 c0 -3 -5 -8 -12 -12 -7 -4 -8 -3 -4 4 7 12 16 16 16 8z"/> <path d="M3844 1346 c-53 -53 -37 -129 16 -81 12 11 20 13 20 7 0 -23 39 -11 64 19 36 42 33 59 -4 24 -31 -30 -41 -23 -16 11 13 17 12 21 -1 37 -23 25 -41 21 -79 -17z m35 -23 c-13 -16 -25 -30 -26 -32 -2 -2 -3 1 -3 7 0 13 35 52 47 52 3 0 -4 -12 -18 -27z"/> <path d="M3991 1329 c-34 -60 -36 -65 -20 -75 6 -3 22 6 34 22 l23 29 -5 -27 c-7 -37 6 -35 37 3 l26 31 -1 -28 c0 -40 26 -41 64 -4 42 42 43 75 1 35 -31 -30 -40 -24 -15 9 14 19 21 56 10 56 -3 0 -18 -8 -32 -17 -15 -10 -24 -12 -20 -5 6 8 2 12 -12 12 -11 0 -23 -5 -26 -11 -5 -6 -12 -4 -20 7 -11 16 -16 12 -44 -37z m99 6 c0 -3 -2 -5 -5 -5 -3 0 -5 2 -5 5 0 3 2 5 5 5 3 0 5 -2 5 -5z"/> </g> </svg>